<svg xmlns="http://www.w3.org/2000/svg" viewBox="0 0 656 140">
  <g fill="none" fill-rule="evenodd">
    <path d="M5 135.013l39.919-98.021c9.168-22.514 11.518-31 17.858-31h13.657c6.151 0 9.314 10.629 17.858 30 21.519 48.8 32.654 73.016 32.654 73.016s60.025-.056 76.21-.056c16.185 0 20.015-5.2 20.015-11.97 0-6.77-5.68-13.966-16.012-13.966H170.13c-22.787 0-37.029-17.975-37.029-39.9 0-21.925 17.9-36.907 38.03-36.907H253.2c12.826 0 14.706 2.689 20.015 7.98 5.309 5.291 38.03 36.907 38.03 36.907s37.13-34.016 42.033-38.9c4.903-4.884 12.115-5.985 22.017-5.985h20.015c6.627 0 12.843 4.82 18.014 9.976C418.495 21.343 487.377 89 487.377 89V18.177c0-11.7 5.548-11.971 14.011-11.971H615c23.794 0 33 18.247 33 34.794 0 13.813-24.737 13-24.737-.341 0-5.644-9.224-9.659-11.263-9.659h-32c-7.688 0-14 8.266-14 14v52c0 6 8.16 13 13 13h33c10.559 0 10-13 10-13v-9" stroke="#B144AB" stroke-width="10" stroke-linecap="round" stroke-linejoin="round"/>
    <path d="M33.008 134.888l36.748-89.022s6.926 15.966 33.685 79.021c3.193 7.524 8.407 10 17.869 10s59.734-.125 84.472-.125c36.138 0 43.035-21.693 43.035-39.9 0-28.68-19.3-37.907-38.032-37.907h-42.031c-15.645 0-14.793-23.941 0-23.941h86.071l44.031 43.891v43.892c0 12.212 5.4 13.966 12.009 13.966s14.011.757 14.011-13.966V74.91s36.357-34.48 45.891-43.042c15.7-14.1 14.156-1.094 14.156 20.776v69.153c0 12.38 5.95 12.966 14.011 12.966s12.009-4.462 12.009-13.966V50.968s72.876 72.641 80.062 79.8c3.946 3.933 22.018 9.726 22.018-11.971V26.02l26.733.061s-2.03 10.363-2.03 17.907c0 9.462-.1 42.18-.1 60.887 0 23.707 24.176 30.015 37.13 30.015h40.029c22.03 0 31.84-17.663 31.84-37.015v-10" stroke="#B144AB" stroke-width="10" stroke-linecap="round" stroke-linejoin="round"/>
    <path d="M630.92 90.926L614.061 91c-.39010006.0056441-.75188652-.2030593-.94229448-.5435806-.19040796-.3405212-.17877664-.7580273.03029448-1.0874194.366-.653 7.756-13.7 8.389-14.809.1807778-.33490377.5300491-.54431639.9106255-.54598375.3805763-.00166737.7316692.20467684.9153745.53798375.466.8 7.937 13.828 8.457 14.772.1933553.3261535.1979682.7306989.0121003 1.0611766-.1858679.3304776-.5339631.5366522-.9131003.5408234zm23.989.013l-16.887.07c-.3906832.0053698-.7528804-.2038216-.9434632-.5449085-.1905829-.341087-.178888-.7591912.0304632-1.0890915.367-.654 7.769-13.72 8.4-14.835.180756-.33586087.5307136-.54597881.9121221-.54764708.3814085-.00166828.7331908.20538028.9168779.53964708.467.8 7.951 13.853 8.471 14.8.1939939.3264118.1991477.7315148.0135205 1.0627562-.1856272.3312414-.5338443.5383159-.9135205.5432438v.001z" fill="#B144AB"/>
  </g>
</svg>
